<mxfile host="Electron" modified="2023-05-23T18:35:11.461Z" agent="Mozilla/5.0 (X11; Linux x86_64) AppleWebKit/537.36 (KHTML, like Gecko) draw.io/21.2.8 Chrome/112.0.5615.165 Electron/24.2.0 Safari/537.36" etag="N2QJYpUAtEGA6jzLzgxk" version="21.2.8" type="device">
  <diagram name="Página-1" id="kswGkz0W5gIj8C-Gn8n3">
    <mxGraphModel dx="1183" dy="744" grid="1" gridSize="10" guides="1" tooltips="1" connect="1" arrows="1" fold="1" page="1" pageScale="1" pageWidth="1700" pageHeight="1100" math="0" shadow="0">
      <root>
        <mxCell id="0" />
        <mxCell id="1" parent="0" />
        <mxCell id="XQ0U445A1wyUe3TwLdx8-23" value="Animal" style="html=1;whiteSpace=wrap;fontSize=16;" parent="1" vertex="1">
          <mxGeometry x="520" y="80" width="200" height="40" as="geometry" />
        </mxCell>
        <mxCell id="XQ0U445A1wyUe3TwLdx8-29" style="edgeStyle=orthogonalEdgeStyle;rounded=0;orthogonalLoop=1;jettySize=auto;html=1;entryX=0.5;entryY=1;entryDx=0;entryDy=0;exitX=0.5;exitY=0;exitDx=0;exitDy=0;strokeColor=#00FF00;" parent="1" source="XQ0U445A1wyUe3TwLdx8-24" target="XQ0U445A1wyUe3TwLdx8-23" edge="1">
          <mxGeometry relative="1" as="geometry" />
        </mxCell>
        <mxCell id="XQ0U445A1wyUe3TwLdx8-24" value="Mamífero" style="html=1;whiteSpace=wrap;fontSize=16;" parent="1" vertex="1">
          <mxGeometry x="280" y="200" width="200" height="40" as="geometry" />
        </mxCell>
        <mxCell id="XQ0U445A1wyUe3TwLdx8-31" style="edgeStyle=orthogonalEdgeStyle;rounded=0;orthogonalLoop=1;jettySize=auto;html=1;exitX=0.5;exitY=0;exitDx=0;exitDy=0;strokeColor=#00FF00;" parent="1" source="XQ0U445A1wyUe3TwLdx8-25" target="XQ0U445A1wyUe3TwLdx8-23" edge="1">
          <mxGeometry relative="1" as="geometry" />
        </mxCell>
        <mxCell id="XQ0U445A1wyUe3TwLdx8-25" value="Peixe" style="html=1;whiteSpace=wrap;fontSize=16;" parent="1" vertex="1">
          <mxGeometry x="760" y="200" width="200" height="40" as="geometry" />
        </mxCell>
        <mxCell id="Q7vWXxR6DqqQVV1GoNm9-2" style="edgeStyle=orthogonalEdgeStyle;rounded=0;orthogonalLoop=1;jettySize=auto;html=1;entryX=0.5;entryY=1;entryDx=0;entryDy=0;" edge="1" parent="1" source="Q7vWXxR6DqqQVV1GoNm9-1" target="XQ0U445A1wyUe3TwLdx8-24">
          <mxGeometry relative="1" as="geometry" />
        </mxCell>
        <mxCell id="Q7vWXxR6DqqQVV1GoNm9-3" style="edgeStyle=orthogonalEdgeStyle;rounded=0;orthogonalLoop=1;jettySize=auto;html=1;entryX=0.5;entryY=1;entryDx=0;entryDy=0;" edge="1" parent="1" source="Q7vWXxR6DqqQVV1GoNm9-1" target="XQ0U445A1wyUe3TwLdx8-25">
          <mxGeometry relative="1" as="geometry" />
        </mxCell>
        <mxCell id="Q7vWXxR6DqqQVV1GoNm9-1" value="Tarefa" style="html=1;whiteSpace=wrap;fontSize=16;" vertex="1" parent="1">
          <mxGeometry x="520" y="320" width="200" height="40" as="geometry" />
        </mxCell>
        <mxCell id="Q7vWXxR6DqqQVV1GoNm9-5" value="Animal" style="swimlane;fontStyle=1;align=center;verticalAlign=top;childLayout=stackLayout;horizontal=1;startSize=26;horizontalStack=0;resizeParent=1;resizeParentMax=0;resizeLast=0;collapsible=1;marginBottom=0;whiteSpace=wrap;html=1;fontSize=16;" vertex="1" parent="1">
          <mxGeometry x="440" y="480" width="360" height="190" as="geometry" />
        </mxCell>
        <mxCell id="Q7vWXxR6DqqQVV1GoNm9-6" value="# nome : String&lt;br&gt;# patas : int&lt;br&gt;# cor : String&lt;br&gt;# ambiente : String" style="text;strokeColor=none;fillColor=none;align=left;verticalAlign=top;spacingLeft=4;spacingRight=4;overflow=hidden;rotatable=0;points=[[0,0.5],[1,0.5]];portConstraint=eastwest;whiteSpace=wrap;html=1;fontSize=16;" vertex="1" parent="Q7vWXxR6DqqQVV1GoNm9-5">
          <mxGeometry y="26" width="360" height="84" as="geometry" />
        </mxCell>
        <mxCell id="Q7vWXxR6DqqQVV1GoNm9-7" value="" style="line;strokeWidth=1;fillColor=none;align=left;verticalAlign=middle;spacingTop=-1;spacingLeft=3;spacingRight=3;rotatable=0;labelPosition=right;points=[];portConstraint=eastwest;strokeColor=inherit;" vertex="1" parent="Q7vWXxR6DqqQVV1GoNm9-5">
          <mxGeometry y="110" width="360" height="8" as="geometry" />
        </mxCell>
        <mxCell id="Q7vWXxR6DqqQVV1GoNm9-8" value="+ Animal(nome : String, patas : int, cor : String, ambiente : String)&lt;br&gt;+ toString() : String" style="text;strokeColor=none;fillColor=none;align=left;verticalAlign=top;spacingLeft=4;spacingRight=4;overflow=hidden;rotatable=0;points=[[0,0.5],[1,0.5]];portConstraint=eastwest;whiteSpace=wrap;html=1;fontSize=16;" vertex="1" parent="Q7vWXxR6DqqQVV1GoNm9-5">
          <mxGeometry y="118" width="360" height="72" as="geometry" />
        </mxCell>
        <mxCell id="Q7vWXxR6DqqQVV1GoNm9-21" style="edgeStyle=orthogonalEdgeStyle;rounded=0;orthogonalLoop=1;jettySize=auto;html=1;entryX=0.533;entryY=1.012;entryDx=0;entryDy=0;entryPerimeter=0;strokeColor=#00FF00;" edge="1" parent="1" source="Q7vWXxR6DqqQVV1GoNm9-13" target="Q7vWXxR6DqqQVV1GoNm9-8">
          <mxGeometry relative="1" as="geometry" />
        </mxCell>
        <mxCell id="Q7vWXxR6DqqQVV1GoNm9-13" value="Mamifero" style="swimlane;fontStyle=1;align=center;verticalAlign=top;childLayout=stackLayout;horizontal=1;startSize=26;horizontalStack=0;resizeParent=1;resizeParentMax=0;resizeLast=0;collapsible=1;marginBottom=0;whiteSpace=wrap;html=1;fontSize=16;" vertex="1" parent="1">
          <mxGeometry x="40" y="800" width="360" height="86" as="geometry" />
        </mxCell>
        <mxCell id="Q7vWXxR6DqqQVV1GoNm9-14" value="- animal : Animal" style="text;strokeColor=none;fillColor=none;align=left;verticalAlign=top;spacingLeft=4;spacingRight=4;overflow=hidden;rotatable=0;points=[[0,0.5],[1,0.5]];portConstraint=eastwest;whiteSpace=wrap;html=1;fontSize=16;" vertex="1" parent="Q7vWXxR6DqqQVV1GoNm9-13">
          <mxGeometry y="26" width="360" height="26" as="geometry" />
        </mxCell>
        <mxCell id="Q7vWXxR6DqqQVV1GoNm9-15" value="" style="line;strokeWidth=1;fillColor=none;align=left;verticalAlign=middle;spacingTop=-1;spacingLeft=3;spacingRight=3;rotatable=0;labelPosition=right;points=[];portConstraint=eastwest;strokeColor=inherit;" vertex="1" parent="Q7vWXxR6DqqQVV1GoNm9-13">
          <mxGeometry y="52" width="360" height="8" as="geometry" />
        </mxCell>
        <mxCell id="Q7vWXxR6DqqQVV1GoNm9-16" value="+ Mamifero(animal : Animal)" style="text;strokeColor=none;fillColor=none;align=left;verticalAlign=top;spacingLeft=4;spacingRight=4;overflow=hidden;rotatable=0;points=[[0,0.5],[1,0.5]];portConstraint=eastwest;whiteSpace=wrap;html=1;fontSize=16;" vertex="1" parent="Q7vWXxR6DqqQVV1GoNm9-13">
          <mxGeometry y="60" width="360" height="26" as="geometry" />
        </mxCell>
        <mxCell id="Q7vWXxR6DqqQVV1GoNm9-23" style="edgeStyle=orthogonalEdgeStyle;rounded=0;orthogonalLoop=1;jettySize=auto;html=1;entryX=0.532;entryY=1.012;entryDx=0;entryDy=0;entryPerimeter=0;strokeColor=#00FF00;" edge="1" parent="1" source="Q7vWXxR6DqqQVV1GoNm9-17" target="Q7vWXxR6DqqQVV1GoNm9-8">
          <mxGeometry relative="1" as="geometry" />
        </mxCell>
        <mxCell id="Q7vWXxR6DqqQVV1GoNm9-17" value="Peixe" style="swimlane;fontStyle=1;align=center;verticalAlign=top;childLayout=stackLayout;horizontal=1;startSize=26;horizontalStack=0;resizeParent=1;resizeParentMax=0;resizeLast=0;collapsible=1;marginBottom=0;whiteSpace=wrap;html=1;fontSize=16;" vertex="1" parent="1">
          <mxGeometry x="880" y="800" width="360" height="140" as="geometry" />
        </mxCell>
        <mxCell id="Q7vWXxR6DqqQVV1GoNm9-18" value="- animal : Animal&lt;br&gt;- caract : String" style="text;strokeColor=none;fillColor=none;align=left;verticalAlign=top;spacingLeft=4;spacingRight=4;overflow=hidden;rotatable=0;points=[[0,0.5],[1,0.5]];portConstraint=eastwest;whiteSpace=wrap;html=1;fontSize=16;" vertex="1" parent="Q7vWXxR6DqqQVV1GoNm9-17">
          <mxGeometry y="26" width="360" height="54" as="geometry" />
        </mxCell>
        <mxCell id="Q7vWXxR6DqqQVV1GoNm9-19" value="" style="line;strokeWidth=1;fillColor=none;align=left;verticalAlign=middle;spacingTop=-1;spacingLeft=3;spacingRight=3;rotatable=0;labelPosition=right;points=[];portConstraint=eastwest;strokeColor=inherit;" vertex="1" parent="Q7vWXxR6DqqQVV1GoNm9-17">
          <mxGeometry y="80" width="360" height="8" as="geometry" />
        </mxCell>
        <mxCell id="Q7vWXxR6DqqQVV1GoNm9-20" value="+ Peixe(animal : Animal, caract : String)&lt;br&gt;+ toString() : String" style="text;strokeColor=none;fillColor=none;align=left;verticalAlign=top;spacingLeft=4;spacingRight=4;overflow=hidden;rotatable=0;points=[[0,0.5],[1,0.5]];portConstraint=eastwest;whiteSpace=wrap;html=1;fontSize=16;" vertex="1" parent="Q7vWXxR6DqqQVV1GoNm9-17">
          <mxGeometry y="88" width="360" height="52" as="geometry" />
        </mxCell>
        <mxCell id="Q7vWXxR6DqqQVV1GoNm9-29" style="edgeStyle=orthogonalEdgeStyle;rounded=0;orthogonalLoop=1;jettySize=auto;html=1;entryX=0.559;entryY=1.019;entryDx=0;entryDy=0;entryPerimeter=0;" edge="1" parent="1" source="Q7vWXxR6DqqQVV1GoNm9-24" target="Q7vWXxR6DqqQVV1GoNm9-20">
          <mxGeometry relative="1" as="geometry" />
        </mxCell>
        <mxCell id="Q7vWXxR6DqqQVV1GoNm9-31" style="edgeStyle=orthogonalEdgeStyle;rounded=0;orthogonalLoop=1;jettySize=auto;html=1;entryX=0.494;entryY=1;entryDx=0;entryDy=0;entryPerimeter=0;" edge="1" parent="1" source="Q7vWXxR6DqqQVV1GoNm9-24" target="Q7vWXxR6DqqQVV1GoNm9-16">
          <mxGeometry relative="1" as="geometry">
            <Array as="points">
              <mxPoint x="620" y="1020" />
              <mxPoint x="218" y="1020" />
            </Array>
          </mxGeometry>
        </mxCell>
        <mxCell id="Q7vWXxR6DqqQVV1GoNm9-24" value="Tarefa" style="swimlane;fontStyle=1;align=center;verticalAlign=top;childLayout=stackLayout;horizontal=1;startSize=26;horizontalStack=0;resizeParent=1;resizeParentMax=0;resizeLast=0;collapsible=1;marginBottom=0;whiteSpace=wrap;html=1;fontSize=16;" vertex="1" parent="1">
          <mxGeometry x="440" y="1100" width="360" height="140" as="geometry" />
        </mxCell>
        <mxCell id="Q7vWXxR6DqqQVV1GoNm9-25" value="- mamifero : Mamifero&lt;br&gt;- peixe : Peixe" style="text;strokeColor=none;fillColor=none;align=left;verticalAlign=top;spacingLeft=4;spacingRight=4;overflow=hidden;rotatable=0;points=[[0,0.5],[1,0.5]];portConstraint=eastwest;whiteSpace=wrap;html=1;fontSize=16;" vertex="1" parent="Q7vWXxR6DqqQVV1GoNm9-24">
          <mxGeometry y="26" width="360" height="54" as="geometry" />
        </mxCell>
        <mxCell id="Q7vWXxR6DqqQVV1GoNm9-26" value="" style="line;strokeWidth=1;fillColor=none;align=left;verticalAlign=middle;spacingTop=-1;spacingLeft=3;spacingRight=3;rotatable=0;labelPosition=right;points=[];portConstraint=eastwest;strokeColor=inherit;" vertex="1" parent="Q7vWXxR6DqqQVV1GoNm9-24">
          <mxGeometry y="80" width="360" height="8" as="geometry" />
        </mxCell>
        <mxCell id="Q7vWXxR6DqqQVV1GoNm9-27" value="+ mamifero() : Mamifero&lt;br&gt;+ peixe() : Peixe" style="text;strokeColor=none;fillColor=none;align=left;verticalAlign=top;spacingLeft=4;spacingRight=4;overflow=hidden;rotatable=0;points=[[0,0.5],[1,0.5]];portConstraint=eastwest;whiteSpace=wrap;html=1;fontSize=16;" vertex="1" parent="Q7vWXxR6DqqQVV1GoNm9-24">
          <mxGeometry y="88" width="360" height="52" as="geometry" />
        </mxCell>
      </root>
    </mxGraphModel>
  </diagram>
</mxfile>
